<svg width="40" height="40" viewBox="0 0 40 40" fill="none" xmlns="http://www.w3.org/2000/svg">
<rect width="40" height="40" fill="#8247E5"/>
<path d="M26.6119 15.6103C26.1627 15.3536 25.5851 15.3536 25.0716 15.6103L21.4776 17.7282L19.0388 19.076L15.509 21.1939C15.0597 21.4506 14.4821 21.4506 13.9687 21.1939L11.209 19.5253C10.7597 19.2685 10.4388 18.7551 10.4388 18.1775V14.9685C10.4388 14.4551 10.6955 13.9417 11.209 13.6208L13.9687 12.0163C14.4179 11.7596 14.9955 11.7596 15.509 12.0163L18.2687 13.685C18.7179 13.9417 19.0388 14.4551 19.0388 15.0327V17.1506L21.4776 15.7387V13.5566C21.4776 13.0432 21.2209 12.5297 20.7075 12.2088L15.5731 9.19242C15.1239 8.9357 14.5463 8.9357 14.0328 9.19242L8.77015 12.273C8.25672 12.5297 8 13.0432 8 13.5566V19.5894C8 20.1029 8.25672 20.6163 8.77015 20.9372L13.9687 23.9536C14.4179 24.2103 14.9955 24.2103 15.509 23.9536L19.0388 21.8999L21.4776 20.4879L25.0075 18.4342C25.4567 18.1775 26.0343 18.1775 26.5478 18.4342L29.3075 20.0387C29.7567 20.2954 30.0776 20.8088 30.0776 21.3864V24.5954C30.0776 25.1088 29.8209 25.6223 29.3075 25.9432L26.6119 27.5476C26.1627 27.8044 25.5851 27.8044 25.0716 27.5476L22.3119 25.9432C21.8627 25.6864 21.5418 25.173 21.5418 24.5954V22.5417L19.103 23.9536V26.0715C19.103 26.585 19.3597 27.0984 19.8731 27.4193L25.0716 30.4357C25.5209 30.6924 26.0985 30.6924 26.6119 30.4357L31.8104 27.4193C32.2597 27.1626 32.5806 26.6491 32.5806 26.0715V19.9745C32.5806 19.4611 32.3239 18.9476 31.8104 18.6267L26.6119 15.6103Z" fill="white"/>
</svg>
